<svg width="19" height="19" viewBox="0 0 19 19" fill="none" xmlns="http://www.w3.org/2000/svg">
<path d="M10.5162 5.21289H8.71621V8.81289H5.11621V10.6129H8.71621V14.2129H10.5162V10.6129H14.1162V8.81289H10.5162V5.21289ZM9.61621 0.712891C4.64821 0.712891 0.616211 4.74489 0.616211 9.71289C0.616211 14.6809 4.64821 18.7129 9.61621 18.7129C14.5842 18.7129 18.6162 14.6809 18.6162 9.71289C18.6162 4.74489 14.5842 0.712891 9.61621 0.712891ZM9.61621 16.9129C5.64721 16.9129 2.41621 13.6819 2.41621 9.71289C2.41621 5.74389 5.64721 2.51289 9.61621 2.51289C13.5852 2.51289 16.8162 5.74389 16.8162 9.71289C16.8162 13.6819 13.5852 16.9129 9.61621 16.9129Z" fill="#F6CD3B"/>
</svg>
