<svg width="22" height="20" viewBox="0 0 22 20" fill="none" xmlns="http://www.w3.org/2000/svg">
<path d="M0.0976562 9.76534C0.404053 8.8167 1.0577 8.48995 2.00753 8.48995C12.4965 8.51103 5.11863 8.50049 15.6076 8.50049C15.7506 8.50049 15.9038 8.50049 16.1387 8.50049C15.9753 8.3213 15.863 8.19481 15.7506 8.08941C14.1063 6.40293 12.4619 4.71646 10.8176 3.01944C10.3784 2.5662 10.2355 2.02863 10.4091 1.42783C10.5725 0.83756 10.9708 0.468644 11.553 0.331618C12.1249 0.205132 12.6049 0.39486 13.0135 0.816479C14.5046 2.34485 15.9957 3.87322 17.4869 5.40159C18.6001 6.53996 19.7133 7.67833 20.8164 8.82724C21.5824 9.61778 21.5926 10.5243 20.8164 11.3148C18.2222 13.9815 15.6383 16.6377 13.0339 19.2939C12.3394 20.0001 11.4202 20.0318 10.787 19.3888C10.1538 18.7353 10.1946 17.7656 10.8891 17.0488C12.513 15.3729 14.1369 13.7075 15.7608 12.0421C15.863 11.9367 15.9753 11.8524 16.0774 11.7575C16.0672 11.7259 16.057 11.6837 16.0468 11.6521C15.9038 11.6521 15.771 11.6521 15.628 11.6521C5.12884 11.6521 12.4863 11.6415 1.9871 11.6626C1.0577 11.6732 0.404053 11.3464 0.0976562 10.3978C0.0976562 10.187 0.0976562 9.97615 0.0976562 9.76534Z" fill="#052148"/>
</svg>
