<svg width="22" height="20" viewBox="0 0 22 20" fill="none" xmlns="http://www.w3.org/2000/svg">
<g clip-path="url(#clip0_524_3123)">
<path d="M10.5739 11.1569C10.5739 12.0037 10.5739 12.82 10.5739 13.6372C10.5739 13.9342 10.5846 14.232 10.5682 14.5273C10.5337 15.1425 10.0573 15.3988 9.56538 15.0492C8.75612 14.4739 7.96243 13.8739 7.16218 13.2825C4.97461 11.6668 2.78704 10.0495 0.59947 8.43214C-0.0433536 7.95695 -0.0474533 7.55389 0.587171 7.08464C3.52989 4.90894 6.47344 2.73494 9.41616 0.559247C9.66624 0.374262 9.90975 0.192671 10.2377 0.373413C10.5575 0.549913 10.5764 0.852847 10.5755 1.17445C10.5723 2.24702 10.5747 3.31875 10.5747 4.31495C11.6127 4.6077 12.6221 4.80287 13.5666 5.17539C17.2022 6.61284 19.3914 9.41392 20.4499 13.2239C20.9312 14.9584 21.1157 16.7378 21.1149 18.5393C21.1149 18.9822 20.9025 19.2589 20.5565 19.2945C20.2302 19.3276 19.9801 19.0968 19.8858 18.6946C18.9527 14.7344 16.5003 12.3686 12.7205 11.4165C12.1801 11.2807 11.6177 11.2358 11.0642 11.1586C10.9183 11.1399 10.7682 11.1569 10.5739 11.1569Z" fill="#F6CD3B"/>
</g>
<defs>
<clipPath id="clip0_524_3123">
<rect width="21" height="19" fill="white" transform="translate(0.114014 0.298828)"/>
</clipPath>
</defs>
</svg>
