<svg width="18" height="20" viewBox="0 0 18 20" fill="none" xmlns="http://www.w3.org/2000/svg">
<g clip-path="url(#clip0_524_3116)">
<path d="M2.32601 6.34375C6.87353 6.34375 11.3552 6.34375 15.8661 6.34375C15.8757 6.47409 15.8923 6.58986 15.8923 6.70644C15.8939 9.78284 15.8987 12.86 15.8916 15.9364C15.8876 17.5969 14.8809 18.8825 13.3248 19.2241C13.0692 19.28 12.8001 19.2832 12.5365 19.2841C10.2476 19.2881 7.95801 19.2533 5.66996 19.297C3.85826 19.3318 2.31728 17.9385 2.32363 15.8838C2.33236 12.8479 2.32601 9.81118 2.32601 6.77526C2.32601 6.64248 2.32601 6.51052 2.32601 6.34375ZM7.96992 12.2796C7.96992 11.3364 7.97389 10.3925 7.96833 9.44929C7.96515 8.90526 7.61504 8.51585 7.14108 8.51018C6.65282 8.50452 6.29159 8.90526 6.2908 9.47115C6.28762 11.3308 6.28762 13.1912 6.2908 15.0508C6.29159 15.6183 6.65361 16.0174 7.14346 16.0093C7.6198 16.0012 7.96515 15.6159 7.96912 15.0686C7.97389 14.14 7.96992 13.2098 7.96992 12.2796ZM12.0101 12.2561C12.0101 11.3397 12.0117 10.4232 12.0093 9.50677C12.0077 8.90849 11.6537 8.50128 11.1527 8.51099C10.666 8.52071 10.331 8.91497 10.3302 9.49544C10.327 11.3283 10.3453 13.162 10.3207 14.9941C10.3112 15.6766 10.7478 15.9939 11.1614 16.0077C11.6632 16.0247 12.0077 15.6102 12.0093 15.0054C12.0125 14.0898 12.0101 13.1725 12.0101 12.2561Z" fill="#F6CD3B"/>
<path d="M5.48893 2.89231C5.48893 2.29889 5.48417 1.76214 5.49052 1.22539C5.49687 0.623064 5.80332 0.3049 6.39955 0.303281C8.26524 0.297614 10.1301 0.296804 11.9958 0.30409C12.5857 0.306519 12.8842 0.628731 12.8906 1.24077C12.8961 1.76619 12.8914 2.29161 12.8914 2.86884C13.0501 2.87774 13.1891 2.8915 13.3272 2.89231C14.4514 2.89393 15.5764 2.88988 16.7005 2.89474C17.2991 2.89717 17.6445 3.21048 17.6501 3.7367C17.6548 4.2686 17.2825 4.60943 16.6831 4.60943C11.656 4.61024 6.62819 4.61024 1.60115 4.60943C1.02319 4.60781 0.655608 4.27426 0.649256 3.76018C0.642905 3.22829 0.987462 2.89798 1.57496 2.89474C2.71263 2.88907 3.8503 2.89231 4.98798 2.89231C5.13167 2.89231 5.27617 2.89231 5.48893 2.89231ZM7.18552 2.72149C8.54231 2.72149 9.86655 2.72149 11.1805 2.72149C11.1805 2.47214 11.1805 2.25194 11.1805 2.03821C9.83321 2.03821 8.5185 2.03821 7.18552 2.03821C7.18552 2.27056 7.18552 2.48105 7.18552 2.72149Z" fill="#F6CD3B"/>
</g>
<defs>
<clipPath id="clip0_524_3116">
<rect width="17" height="19" fill="white" transform="translate(0.649292 0.298828)"/>
</clipPath>
</defs>
</svg>
