<svg width="23" height="23" viewBox="0 0 23 23" fill="none" xmlns="http://www.w3.org/2000/svg">
<path d="M1.98494 2.56836C1.98494 3.47593 1.98315 4.31168 1.98494 5.14743C1.98854 6.64479 2.95356 7.61699 4.45181 7.61699C5.00299 7.61699 5.56495 7.64212 6.10446 7.54966C7.25082 7.35396 7.98423 6.43742 7.99411 5.27939C8.00129 4.38529 7.9959 3.49029 7.9959 2.56836C10.1522 2.56836 12.2689 2.56836 14.4261 2.56836C14.4369 2.69404 14.4557 2.82061 14.4566 2.94808C14.4593 3.71112 14.4539 4.47327 14.4593 5.2363C14.4665 6.45088 15.1963 7.38898 16.3956 7.55236C17.1254 7.652 17.8939 7.64302 18.6228 7.5353C19.7243 7.37282 20.4505 6.44011 20.4658 5.32428C20.4783 4.42928 20.4685 3.53338 20.4685 2.64197C21.4254 2.53514 22.377 3.41219 22.4443 4.43377C22.4551 4.59804 22.4524 4.76232 22.4524 4.9275C22.4524 10.1467 22.4236 15.3659 22.4703 20.5851C22.4847 22.1524 21.3877 23.0088 20.0627 22.999C14.1559 22.9577 8.24815 22.981 2.34133 22.981C0.826022 22.981 0.00104132 22.1704 0.000143631 20.673C0.000143631 15.3641 -0.000754063 10.0551 0.00193902 4.74616C0.00283671 3.70753 0.531578 2.95257 1.44543 2.6689C1.59894 2.62043 1.76321 2.60876 1.98494 2.56836ZM11.2034 10.5928C8.72214 10.5928 6.24001 10.5919 3.75879 10.5928C2.93022 10.5928 2.61333 10.9025 2.61333 11.7203C2.61153 14.3667 2.61153 17.0122 2.61333 19.6587C2.61423 20.4576 2.92483 20.7862 3.71929 20.7871C8.71226 20.7915 13.7052 20.7915 18.6991 20.7871C19.4819 20.7862 19.788 20.4782 19.7889 19.699C19.7943 17.023 19.7943 14.347 19.7889 11.671C19.7871 10.8891 19.4774 10.5937 18.6937 10.5928C16.1963 10.5919 13.6998 10.5928 11.2034 10.5928Z" fill="#193A69"/>
<path d="M15.9641 3.05522C15.965 2.3245 15.956 1.59288 15.9677 0.862158C15.9767 0.29302 16.2613 0.0147353 16.825 0.00665604C17.2577 -0.000525505 17.6904 -0.00411628 18.1231 0.00755374C18.5962 0.0201214 18.9292 0.313667 18.9337 0.784059C18.9499 2.30565 18.9508 3.82814 18.9328 5.34973C18.9274 5.81563 18.5899 6.0984 18.1096 6.10918C17.7065 6.11815 17.3035 6.11367 16.9013 6.11097C16.2209 6.10648 15.9704 5.85513 15.965 5.15942C15.9596 4.45832 15.9632 3.75632 15.9641 3.05522Z" fill="#193A69"/>
<path d="M3.49427 3.04413C3.49427 2.32598 3.48889 1.60782 3.49607 0.889666C3.50235 0.295393 3.78602 0.0135174 4.37491 0.00633584C4.77887 0.000949675 5.18283 5.19807e-05 5.5868 0.00633584C6.14337 0.0144151 6.46025 0.310654 6.46384 0.858247C6.47282 2.32418 6.47192 3.79101 6.46384 5.25695C6.46115 5.80993 6.15234 6.10257 5.59487 6.11155C5.19091 6.11783 4.78695 6.11604 4.38299 6.11245C3.77705 6.10616 3.50235 5.84224 3.49607 5.24438C3.48799 4.51006 3.49427 3.77665 3.49427 3.04413Z" fill="#193A69"/>
<path d="M11.2142 19.5701C10.9458 19.5701 10.6773 19.5719 10.4098 19.5692C10.0104 19.5665 9.7994 19.3627 9.79491 18.9651C9.78863 18.4139 9.78952 17.8627 9.79491 17.3106C9.7985 16.9363 9.99599 16.7181 10.3685 16.7083C10.9341 16.693 11.5014 16.6948 12.067 16.7065C12.4647 16.7145 12.6595 16.9417 12.6612 17.3358C12.663 17.8573 12.6675 18.3789 12.6603 18.9004C12.6532 19.3879 12.4718 19.5593 11.9745 19.5683C11.7214 19.5737 11.4673 19.5701 11.2142 19.5701Z" fill="#193A69"/>
<path d="M11.1978 15.0113C10.9438 15.0113 10.6897 15.0167 10.4357 15.0095C9.96886 14.9961 9.801 14.8246 9.79381 14.3479C9.78663 13.8398 9.78573 13.3317 9.79381 12.8236C9.801 12.3658 9.98233 12.1728 10.4482 12.1575C10.9707 12.1405 11.4949 12.1396 12.0174 12.1584C12.477 12.1746 12.653 12.3721 12.6593 12.8371C12.6664 13.3299 12.6646 13.8237 12.6593 14.3165C12.6539 14.8425 12.4905 15.0023 11.9591 15.0113C11.7059 15.0149 11.4519 15.0113 11.1978 15.0113Z" fill="#193A69"/>
<path d="M6.676 19.5717C6.40669 19.5717 6.13828 19.569 5.86897 19.5726C5.45962 19.578 5.25585 19.3517 5.24418 18.9693C5.22622 18.4172 5.22622 17.8634 5.24418 17.3104C5.25675 16.9253 5.47129 16.7062 5.87346 16.7053C6.41118 16.7044 6.9498 16.6999 7.48752 16.7071C7.87891 16.7125 8.10064 16.901 8.09795 17.314C8.09436 17.8517 8.10333 18.3903 8.09615 18.928C8.08897 19.3984 7.91751 19.5618 7.43904 19.5708C7.18409 19.5762 6.93005 19.5717 6.676 19.5717Z" fill="#193A69"/>
<path d="M14.358 18.117C14.358 17.8477 14.3598 17.5792 14.3571 17.3099C14.3535 16.8961 14.5797 16.7112 14.9702 16.7067C15.508 16.7004 16.0466 16.704 16.5843 16.7058C16.9865 16.7067 17.1983 16.9293 17.21 17.3144C17.227 17.8665 17.2279 18.4204 17.2091 18.9734C17.1965 19.3567 16.99 19.5775 16.5807 19.5739C16.043 19.5694 15.5044 19.5739 14.9666 19.5721C14.5681 19.5712 14.3544 19.38 14.3562 18.9707C14.3589 18.6852 14.358 18.4006 14.358 18.117Z" fill="#193A69"/>
<path d="M8.09553 13.5686C8.09553 13.8676 8.10002 14.1665 8.09463 14.4645C8.08835 14.8021 7.91509 14.9987 7.57217 15.004C6.97521 15.013 6.37734 15.0076 5.78038 15.0058C5.4222 15.0049 5.26151 14.7769 5.24984 14.4636C5.2283 13.8819 5.23009 13.2984 5.24805 12.7167C5.25882 12.3657 5.47875 12.1682 5.82706 12.1601C6.3944 12.1467 6.96264 12.1422 7.52908 12.161C7.89175 12.1736 8.10899 12.3666 8.09822 12.7616C8.09104 13.03 8.09643 13.2993 8.09643 13.5677C8.09643 13.5686 8.09553 13.5686 8.09553 13.5686Z" fill="#193A69"/>
<path d="M15.7475 15.0102C14.2852 15.0246 14.3426 15.073 14.3561 13.6269C14.3588 13.3584 14.3525 13.0891 14.3579 12.8207C14.3678 12.3414 14.5195 12.1726 15.0007 12.1564C15.5078 12.1394 16.0168 12.1421 16.524 12.1555C17.0196 12.169 17.2009 12.3485 17.2144 12.8369C17.2278 13.3297 17.226 13.8226 17.2153 14.3154C17.2036 14.8477 17.0411 15.0003 16.5097 15.0093C16.2556 15.0138 16.0016 15.0102 15.7475 15.0102Z" fill="#193A69"/>
</svg>
