<svg width="32" height="22" viewBox="0 0 32 22" fill="none" xmlns="http://www.w3.org/2000/svg">
<path opacity="0.5" d="M0 19.5115V1.98062C0 1.96039 0.0303303 1.76777 0.0909909 1.40274L10.4081 10.2289L0.121321 20.1261C0.0565694 19.929 0.0158347 19.7248 0 19.5179V19.5115ZM1.36965 0.184743C1.53416 0.119871 1.71009 0.0889203 1.88686 0.0937515H29.6758C29.8593 0.0951653 30.0415 0.125883 30.2154 0.184743L19.8743 9.04119L18.5047 10.1363L15.7909 12.3584L13.0771 10.1363L11.7075 9.04119L1.36965 0.184743ZM1.39998 21.3074L11.7761 11.3543L15.7941 14.6108L19.8121 11.3543L30.1882 21.3074C30.0227 21.3687 29.8475 21.3996 29.671 21.3984H1.88686C1.72041 21.3977 1.55546 21.3669 1.39998 21.3074ZM21.1833 10.2289L31.4701 1.40274C31.5314 1.58919 31.5621 1.78434 31.5611 1.98062V19.5115C31.5577 19.7174 31.5271 19.9219 31.4701 20.1197L21.1833 10.2289Z" fill="#193A69"/>
</svg>
