<svg width="25" height="25" viewBox="0 0 25 25" fill="none" xmlns="http://www.w3.org/2000/svg">
<path d="M12.037 4.65468C13.7617 4.62814 15.4296 5.27068 16.6908 6.44745L20.0877 3.12579C17.9083 1.08366 15.0234 -0.0361353 12.037 0.000889727C9.80567 0.000374135 7.61817 0.620588 5.71915 1.79217C3.82013 2.96376 2.28446 4.64052 1.28387 6.63494L5.17611 9.65684C5.65204 8.20973 6.57021 6.94852 7.80115 6.05106C9.03208 5.15361 10.5137 4.66519 12.037 4.65468Z" fill="#EA4335"/>
<path d="M23.5925 12.3053C23.6067 11.4779 23.5212 10.6517 23.3379 9.84473H12.0374V14.3122H18.6714C18.5456 15.0954 18.2626 15.8451 17.8396 16.5162C17.4165 17.1873 16.8621 17.7659 16.2097 18.2171L20.0082 21.1592C21.192 20.0162 22.1229 18.6377 22.7409 17.1127C23.3589 15.5876 23.6502 13.9499 23.596 12.3053H23.5925Z" fill="#4285F4"/>
<path d="M5.19005 14.4181C4.92688 13.6518 4.79121 12.8476 4.78844 12.0374C4.79324 11.2285 4.92405 10.4253 5.17616 9.65666L1.28392 6.63477C0.439727 8.3108 0 10.1613 0 12.038C0 13.9146 0.439727 15.7651 1.28392 17.4411L5.19005 14.4181Z" fill="#FBBC05"/>
<path d="M12.037 24.0739C14.969 24.1568 17.8213 23.1136 20.0079 21.1585L16.2094 18.2165C14.9777 19.0421 13.5192 19.4629 12.037 19.4201C10.515 19.4111 9.03448 18.923 7.80547 18.0251C6.57646 17.1273 5.66137 15.8652 5.19003 14.418L1.29779 17.441C2.29567 19.4346 3.82883 21.1109 5.72556 22.2824C7.62229 23.4539 9.8077 24.0742 12.037 24.0739Z" fill="#34A853"/>
</svg>
