<svg width="31" height="31" viewBox="0 0 31 31" fill="none" xmlns="http://www.w3.org/2000/svg">
<circle cx="15.1175" cy="15.2245" r="14.9027" fill="white"/>
<path d="M15.1193 22.972C13.9495 22.972 12.7798 22.975 11.61 22.9714C9.2299 22.9641 7.3769 21.1146 7.37206 18.7355C7.36722 16.3958 7.36782 14.0561 7.37206 11.717C7.3769 9.33607 9.22869 7.48293 11.6082 7.47869C13.9477 7.47385 16.2873 7.47445 18.6262 7.47869C21.0063 7.48353 22.8593 9.33546 22.8641 11.7145C22.869 14.0543 22.8684 16.394 22.8641 18.7331C22.8593 21.1134 21.0075 22.9641 18.6286 22.9714C17.4589 22.975 16.2891 22.972 15.1193 22.972ZM15.106 10.9871C12.784 10.9931 10.8784 12.9062 10.8808 15.2296C10.8832 17.5524 12.7931 19.4612 15.1151 19.4624C17.4498 19.4636 19.3651 17.5409 19.3554 15.2048C19.3457 12.8832 17.4292 10.981 15.106 10.9871ZM20.6965 10.7619C20.7061 10.0666 20.1712 9.50129 19.4837 9.48011C18.8126 9.45953 18.2201 10.0284 18.2056 10.7063C18.1911 11.3926 18.7376 11.9615 19.4287 11.9778C20.1216 11.9947 20.6868 11.4531 20.6965 10.7619Z" fill="#052148"/>
<path d="M15.1171 18.5527C13.2901 18.5521 11.7899 17.0512 11.7905 15.2235C11.7911 13.3957 13.2919 11.8966 15.1195 11.8966C16.9471 11.8972 18.4461 13.3976 18.4461 15.2259C18.4455 17.0536 16.9453 18.5533 15.1171 18.5527Z" fill="#052148"/>
<path d="M19.7864 10.7409C19.7731 10.9528 19.6581 11.0629 19.4572 11.0611C19.2424 11.0593 19.0875 10.9231 19.1323 10.7228C19.1613 10.5945 19.3289 10.4292 19.4554 10.4081C19.6485 10.376 19.784 10.5249 19.7864 10.7409Z" fill="#FF6600"/>
</svg>
