<svg width="29" height="31" viewBox="0 0 29 31" fill="none" xmlns="http://www.w3.org/2000/svg">
<path d="M14.5502 0.321777C6.65013 0.321777 0.243652 6.99519 0.243652 15.2245C0.243652 23.4537 6.65013 30.1271 14.5502 30.1271C22.4503 30.1271 28.8568 23.4537 28.8568 15.2245C28.8568 6.99519 22.4503 0.321777 14.5502 0.321777ZM10.3929 22.8504H6.9086V11.9311H10.3929V22.8504ZM8.65086 10.44H8.62816C7.45894 10.44 6.70274 9.60162 6.70274 8.55377C6.70274 7.48228 7.48208 6.66706 8.674 6.66706C9.86593 6.66706 10.5994 7.48228 10.6221 8.55377C10.6221 9.60162 9.86593 10.44 8.65086 10.44ZM22.9566 22.8504H19.4727V17.0088C19.4727 15.5408 18.9682 14.5395 17.7075 14.5395C16.745 14.5395 16.1718 15.2149 15.9199 15.8669C15.8277 16.1002 15.8052 16.4263 15.8052 16.7526V22.8504H12.3212C12.3212 22.8504 12.3668 12.9555 12.3212 11.9311H15.8052V13.4771C16.2683 12.7331 17.0967 11.6748 18.9453 11.6748C21.2377 11.6748 22.9566 13.2354 22.9566 16.5893V22.8504Z" fill="white"/>
</svg>
