<svg width="42" height="41" viewBox="0 0 42 41" fill="none" xmlns="http://www.w3.org/2000/svg">
<circle cx="20.9061" cy="20.2674" r="20.2674" fill="#F6CD3B"/>
<path d="M9.25391 20.256C9.25391 13.8258 14.4793 8.61523 20.9281 8.61523C27.3235 8.61523 32.5587 13.8559 32.5577 20.256C32.5567 26.7201 27.3352 31.9248 20.8573 31.919C14.4628 31.9142 9.25391 26.6764 9.25391 20.256ZM27.9507 20.2637C27.8672 19.7064 27.8226 19.1393 27.6915 18.5936C27.3371 17.1186 26.5555 15.896 25.3963 14.9172C25.072 14.6434 24.7156 14.6046 24.3749 14.8541C24.0438 15.0969 23.9952 15.4532 24.1661 15.8077C24.2457 15.9727 24.4098 16.1038 24.5525 16.2301C26.1458 17.639 26.7507 19.9753 26.0497 22.0339C25.3545 24.076 23.4224 25.5685 21.3039 25.6996C18.9319 25.8462 16.7435 24.4877 15.8687 22.3252C14.9716 20.1074 15.5833 17.6682 17.4329 16.0912C17.8843 15.7067 17.9707 15.2348 17.6581 14.8716C17.361 14.5269 16.8707 14.522 16.4513 14.8871C14.4075 16.6661 13.5628 18.9082 14.0424 21.5736C14.6706 25.0694 17.9824 27.5639 21.4641 27.2454C25.1128 26.9124 27.8944 23.8973 27.9507 20.2637ZM21.6835 16.7768C21.6835 15.9048 21.6884 15.0318 21.6816 14.1598C21.6777 13.6277 21.3757 13.2869 20.9223 13.2762C20.4495 13.2645 20.13 13.6141 20.1281 14.1724C20.1232 15.9009 20.1242 17.6303 20.1281 19.3587C20.1291 19.9219 20.4398 20.2715 20.9116 20.2676C21.3815 20.2637 21.6796 19.9142 21.6825 19.3461C21.6874 18.4897 21.6835 17.6332 21.6835 16.7768Z" fill="#142E54"/>
</svg>
