<svg width="24" height="19" viewBox="0 0 24 19" fill="none" xmlns="http://www.w3.org/2000/svg">
<path d="M5.52944 0.167973C8.42888 0.164295 10.8923 2.50288 10.7951 5.29115C10.7677 6.07099 10.4742 6.88485 10.1268 7.60123C9.12543 9.66485 7.65305 11.4268 6.12594 13.1392C5.7871 13.519 5.30575 13.5309 4.97258 13.1557C3.35675 11.3358 1.85606 9.44414 0.763108 7.25913C-0.878209 3.97886 1.82208 0.166134 5.52944 0.167973ZM5.53038 3.11166C4.30907 3.11718 3.28313 4.11589 3.27652 5.30587C3.26897 6.51332 4.3119 7.53226 5.55115 7.52674C6.77246 7.52122 7.7984 6.52252 7.80595 5.33254C7.81256 4.12508 6.76963 3.10615 5.53038 3.11166Z" fill="#F6CD3B"/>
<path d="M18.6582 0.167971C21.5576 0.165213 24.0182 2.50564 23.9229 5.29391C23.8965 6.05903 23.6105 6.85726 23.2716 7.56261C22.2702 9.64554 20.7875 11.4167 19.2509 13.1419C18.913 13.5217 18.4317 13.5309 18.0976 13.1548C16.4827 11.3349 14.9801 9.44322 13.889 7.25821C12.2487 3.97518 14.9518 0.164293 18.6582 0.167971ZM18.6761 7.52674C19.8975 7.52214 20.9243 6.52436 20.9319 5.33437C20.9404 4.12692 19.8975 3.10798 18.6582 3.11258C17.4369 3.11718 16.41 4.11496 16.4025 5.30495C16.3949 6.51148 17.4378 7.53134 18.6761 7.52674Z" fill="#F6CD3B"/>
<path d="M21.399 16.6417C21.3943 17.634 20.7025 18.4956 19.6982 18.7577C18.7232 19.0115 17.6898 18.6133 17.2056 17.736C17.0347 17.427 16.846 17.3581 16.5147 17.3599C13.7162 17.3728 10.9168 17.37 8.11745 17.3627C7.83147 17.3617 7.65214 17.4041 7.49641 17.6946C7.00845 18.6023 5.97307 19.0161 4.98111 18.7586C3.97688 18.4975 3.28316 17.6376 3.2775 16.6454C3.27184 15.6338 3.97027 14.7648 5.00093 14.5017C5.99101 14.2488 7.0094 14.6737 7.50774 15.5869C7.63893 15.826 7.77484 15.9042 8.04289 15.9032C10.9046 15.894 13.7663 15.8922 16.6289 15.906C16.9337 15.9078 17.0517 15.7874 17.1858 15.5483C17.686 14.659 18.727 14.247 19.7171 14.5119C20.7147 14.7767 21.4028 15.6494 21.399 16.6417Z" fill="#F6CD3B"/>
</svg>
