<?xml version="1.0" encoding="UTF-8"?>
<svg xmlns="http://www.w3.org/2000/svg" xmlns:xlink="http://www.w3.org/1999/xlink" width="28px" height="39px" viewBox="0 0 28 37" version="1.1">
<g id="surface1">
<path style=" stroke:none;fill-rule:nonzero;fill:rgb(96.470588%,80.392157%,23.137255%);fill-opacity:1;" d="M 13.898438 0.0859375 C 6.332031 0.0859375 0.203125 6.195312 0.203125 13.734375 C 0.203125 16.703125 1.179688 19.425781 2.800781 21.65625 C 2.832031 21.707031 2.835938 21.769531 2.867188 21.820312 L 12 35.46875 C 12.421875 36.101562 13.136719 36.480469 13.898438 36.480469 C 14.660156 36.480469 15.371094 36.101562 15.796875 35.46875 L 24.925781 21.820312 C 24.960938 21.769531 24.964844 21.707031 24.992188 21.65625 C 26.617188 19.425781 27.59375 16.703125 27.59375 13.734375 C 27.59375 6.195312 21.460938 0.0859375 13.898438 0.0859375 Z M 13.898438 18.285156 C 11.375 18.285156 9.332031 16.246094 9.332031 13.734375 C 9.332031 11.222656 11.375 9.183594 13.898438 9.183594 C 16.417969 9.183594 18.460938 11.222656 18.460938 13.734375 C 18.460938 16.246094 16.417969 18.285156 13.898438 18.285156 Z M 13.898438 18.285156 "/>
</g>
</svg>
