<svg width="41" height="41" viewBox="0 0 41 41" fill="none" xmlns="http://www.w3.org/2000/svg">
<circle cx="20.2674" cy="20.2674" r="20.2674" fill="#F6CD3B"/>
<path d="M16.2575 22.6833C17.192 23.0357 18.1021 23.3165 18.9346 23.7105C19.8739 24.1541 20.7076 24.1392 21.6408 23.6986C22.4709 23.3066 23.3798 23.0267 24.2924 22.6833C24.6407 23.2163 24.9623 23.7075 25.2839 24.1988C26.8117 26.5419 28.3408 28.884 29.8662 31.228C30.3953 32.0408 30.0288 32.5529 28.9184 32.5529C23.1577 32.5539 17.3971 32.5539 11.6364 32.5529C10.5175 32.5529 10.1389 32.0458 10.6631 31.24C12.4446 28.5029 14.2297 25.7678 16.0148 23.0317C16.0791 22.9324 16.1507 22.8352 16.2575 22.6833Z" fill="#142E54"/>
<path d="M21.0077 13.3376C21.0077 14.5027 21.0077 15.6182 21.0077 16.7307C20.4983 16.7307 20.0445 16.7307 19.548 16.7307C19.54 16.5848 19.5231 16.425 19.5231 16.2652C19.5211 13.8705 19.5211 11.4748 19.5221 9.08013C19.5231 8.18398 19.7301 7.98252 20.6356 7.98252C22.1092 7.98252 23.5838 7.97954 25.0574 7.98351C25.8674 7.98549 26.2674 8.56903 25.7987 9.22006C25.0803 10.2184 25.1549 11.0908 25.7977 12.0812C26.2554 12.7858 25.8713 13.3356 25.0236 13.3376C23.8644 13.3406 22.7052 13.3386 21.546 13.3386C21.3858 13.3376 21.2236 13.3376 21.0077 13.3376Z" fill="#142E54"/>
<path d="M17.1025 21.3616C17.9047 20.131 18.6583 18.9491 19.4435 17.782C19.8439 17.1875 20.6849 17.1816 21.0842 17.773C21.873 18.9411 22.6254 20.1241 23.4299 21.3586C22.413 21.7447 21.4191 22.1278 20.4155 22.494C20.3111 22.5327 20.1388 22.4979 20.0211 22.4543C19.0673 22.1039 18.1195 21.7437 17.1025 21.3616Z" fill="#142E54"/>
</svg>
