<svg width="41" height="41" viewBox="0 0 41 41" fill="none" xmlns="http://www.w3.org/2000/svg">
<circle cx="20.2674" cy="20.2674" r="20.2674" fill="#F6CD3B"/>
<path d="M20.2309 32.3895C18.2208 32.3886 16.2116 32.4038 14.2015 32.3848C12.0632 32.3658 10.491 31.0615 10.2022 28.9648C10.0787 28.069 10.1442 27.1332 10.2278 26.225C10.3532 24.8684 10.6648 23.5498 11.3317 22.3367C12.1829 20.7882 13.4501 19.8847 15.2446 19.8572C15.6113 19.8515 16.0036 20.0215 16.3437 20.1906C17.0343 20.5326 17.6708 20.9905 18.3766 21.2907C20.0105 21.9871 21.5894 21.7097 23.0998 20.8661C23.361 20.7198 23.6261 20.5678 23.855 20.3778C24.6511 19.7166 25.526 19.747 26.4503 20.0196C27.7109 20.3911 28.5972 21.2081 29.189 22.3462C30.2882 24.4628 30.5589 26.7475 30.3204 29.0741C30.1219 31.0054 28.392 32.3553 26.3069 32.3886C26.2755 32.3895 26.2432 32.3895 26.2119 32.3895C24.2189 32.3895 22.2249 32.3895 20.2309 32.3895Z" fill="#142E54"/>
<path d="M14.2578 14.0026C14.2521 10.7555 16.8474 8.14489 20.0877 8.14014C23.3432 8.13539 25.9813 10.7669 25.9708 14.0111C25.9604 17.2449 23.348 19.8375 20.101 19.8375C16.8398 19.8375 14.2635 17.2658 14.2578 14.0026Z" fill="#142E54"/>
</svg>
