<svg width="42" height="41" viewBox="0 0 42 41" fill="none" xmlns="http://www.w3.org/2000/svg">
<circle cx="20.9061" cy="20.2674" r="20.2674" fill="#F6CD3B"/>
<path d="M30.2936 17.4586C30.2916 22.5676 26.076 26.7029 20.8776 26.6988C15.7006 26.6938 11.5105 22.5334 11.5166 17.4033C11.5227 12.3064 15.7506 8.18117 20.9592 8.18922C26.1055 8.19727 30.2967 12.3587 30.2936 17.4586ZM17.8334 20.6604C17.813 21.5195 18.4212 21.8906 19.1182 21.5547C19.7112 21.269 20.2969 20.7278 20.8827 20.7318C21.4899 20.7369 22.0899 21.267 22.6981 21.5567C23.4115 21.8967 24.036 21.4993 23.9686 20.7258C23.9217 20.1947 23.8288 19.6636 23.7054 19.1435C23.6247 18.8025 23.7054 18.5792 23.9646 18.3529C24.3717 17.9978 24.7646 17.6246 25.132 17.2303C25.6412 16.6861 25.3994 15.9689 24.6636 15.8281C24.1646 15.7325 23.6594 15.6611 23.1533 15.6098C22.7471 15.5695 22.4808 15.4186 22.3277 15.0153C22.1624 14.5787 21.9634 14.1401 21.6919 13.7629C21.5174 13.5215 21.2103 13.3042 20.9204 13.2278C20.5265 13.1242 20.2673 13.4179 20.0979 13.7579C19.852 14.2528 19.6193 14.7558 19.3479 15.2386C19.2734 15.3724 19.0958 15.5031 18.9448 15.5333C18.3641 15.65 17.7753 15.7365 17.1875 15.814C16.8068 15.8643 16.4986 16.0564 16.467 16.4105C16.4425 16.6881 16.5527 17.0402 16.7293 17.2605C17.065 17.6769 17.5181 17.9998 17.8692 18.4072C18.0182 18.5792 18.111 18.8719 18.0906 19.0972C18.0416 19.6626 17.911 20.2198 17.8334 20.6604Z" fill="#142E54"/>
<path d="M19.716 28.2459C19.1129 29.5104 18.5618 30.7265 17.9536 31.9145C17.6444 32.518 16.8759 32.4748 16.5239 31.8692C16.3647 31.5946 16.2432 31.2989 16.1024 31.0142C15.9626 30.7305 15.8208 30.4479 15.6646 30.136C15.0625 30.2879 14.4829 30.4811 13.8879 30.5625C13.592 30.6028 13.2073 30.5193 12.9685 30.3483C12.6521 30.122 12.695 29.7377 12.8634 29.3866C13.3481 28.3757 13.8237 27.3608 14.3043 26.3478C14.3176 26.3196 14.3513 26.3025 14.4166 26.2422C15.9749 27.3245 17.7097 28.0176 19.716 28.2459Z" fill="#142E54"/>
<path d="M27.4407 26.2C27.9795 27.3507 28.5142 28.429 28.9796 29.5355C29.0735 29.7578 28.999 30.1813 28.8337 30.3423C28.6449 30.5263 28.252 30.6169 27.9734 30.5766C27.3744 30.4901 26.7927 30.294 26.1508 30.129C25.8957 30.6491 25.6375 31.1691 25.3854 31.6922C25.216 32.0432 24.9935 32.3279 24.5578 32.3289C24.1231 32.3289 23.9026 32.0593 23.7343 31.6972C23.2077 30.5626 22.6648 29.4349 22.1035 28.255C24.0659 28.0106 25.8171 27.3567 27.4407 26.2Z" fill="#142E54"/>
</svg>
