<svg width="42" height="41" viewBox="0 0 42 41" fill="none" xmlns="http://www.w3.org/2000/svg">
<circle cx="20.9061" cy="20.2674" r="20.2674" fill="#F6CD3B"/>
<path d="M20.913 29.9968C19.3976 29.9968 17.883 29.9987 16.3675 29.9959C15.5484 29.994 15.3469 29.7907 15.3469 28.9612C15.3451 26.8216 15.3404 24.681 15.3479 22.5413C15.3563 20.2723 16.8024 18.8234 19.0658 18.8112C20.3469 18.8047 21.6272 18.7962 22.9083 18.8131C25.0086 18.8412 26.4716 20.2236 26.5166 22.3098C26.5663 24.5891 26.5344 26.8703 26.526 29.1515C26.5232 29.7663 26.2636 29.9922 25.5991 29.994C24.0367 30.0015 22.4754 29.9968 20.913 29.9968Z" fill="#142E54"/>
<path d="M16.7883 13.8036C16.764 11.5393 18.599 9.68077 20.9017 9.63672C23.1529 9.59361 25.0611 11.4596 25.0883 13.7305C25.1154 16.0557 23.3076 17.9217 20.9983 17.9507C18.6609 17.9798 16.8136 16.1597 16.7883 13.8036Z" fill="#142E54"/>
<path d="M14.0367 29.9406C12.8839 29.9406 11.7621 29.9968 10.6477 29.9228C9.70959 29.861 8.96826 28.9659 8.95139 27.9865C8.92796 26.6145 8.9139 25.2414 8.9542 23.8703C9.00481 22.1636 10.4772 20.7166 12.1848 20.651C12.8502 20.6257 13.5165 20.6472 14.1379 20.6472C13.8249 23.5938 14.0339 26.5067 13.9917 29.4148C13.9889 29.5835 14.0198 29.7522 14.0367 29.9406Z" fill="#142E54"/>
<path d="M27.892 29.9788C27.8498 26.8645 28.0175 23.7848 27.7842 20.6864C29.4309 20.2084 31.4018 20.8054 32.3072 22.1109C32.7177 22.7033 32.9313 23.3593 32.9332 24.081C32.9351 25.2975 32.936 26.514 32.9332 27.7295C32.9304 29.0341 32.2191 29.8757 30.9257 29.9638C29.906 30.0351 28.8779 29.9788 27.892 29.9788Z" fill="#142E54"/>
<path d="M13.6369 19.7323C11.8862 19.7351 10.5207 18.3714 10.5244 16.6226C10.5282 14.9019 11.8928 13.5335 13.6107 13.5298C15.3342 13.526 16.7194 14.8887 16.7269 16.5954C16.7334 18.3461 15.3707 19.7294 13.6369 19.7323Z" fill="#142E54"/>
<path d="M28.2713 19.7323C26.5309 19.7407 25.1513 18.3677 25.1494 16.6263C25.1475 14.9122 26.5215 13.5335 28.2338 13.5298C29.962 13.526 31.3378 14.8775 31.3519 16.5917C31.3659 18.348 30.0154 19.7248 28.2713 19.7323Z" fill="#142E54"/>
</svg>
