<svg width="42" height="41" viewBox="0 0 42 41" fill="none" xmlns="http://www.w3.org/2000/svg">
<circle cx="20.9061" cy="20.2674" r="20.2674" fill="#F6CD3B"/>
<path d="M13.666 32.1894C14.0021 31.2246 14.3046 30.2925 14.6562 29.3795C14.8215 28.9489 15.2004 28.7463 15.6682 28.7445C16.425 28.7418 17.1826 28.7309 17.9394 28.7472C18.2119 28.7527 18.3455 28.6646 18.4254 28.402C18.6353 27.7125 18.8715 27.0302 19.1031 26.3262C15.641 25.2751 13.835 22.9467 13.6169 19.3347C13.3707 19.272 13.1109 19.2102 12.8538 19.1393C10.589 18.5116 9.01829 16.463 9.00376 14.111C8.9983 13.2025 8.99921 12.2941 9.00376 11.3856C9.0083 10.5498 9.41892 10.1401 10.2638 10.1356C11.3667 10.1292 12.4704 10.1338 13.6178 10.1338C13.6178 9.74948 13.6178 9.39336 13.6178 9C18.2982 9 22.9341 9 27.6136 9C27.6136 9.35975 27.6136 9.71678 27.6136 10.1338C28.2849 10.1338 28.9154 10.1329 29.5459 10.1338C30.091 10.1347 30.636 10.1247 31.1811 10.141C31.7553 10.1583 32.2313 10.5153 32.2349 11.0667C32.2431 12.4558 32.3521 13.8793 32.0932 15.2257C31.668 17.4342 30.1673 18.7442 27.9715 19.2402C27.9125 19.2538 27.8543 19.2683 27.7962 19.2856C27.7526 19.2983 27.7108 19.3156 27.6308 19.3446C27.59 20.9554 27.1503 22.4543 26.1382 23.7525C25.1262 25.0507 23.8044 25.8783 22.1519 26.2917C22.4126 27.0793 22.6561 27.8497 22.9341 28.6064C22.9641 28.6882 23.1894 28.7327 23.3247 28.7345C24.0361 28.7472 24.7483 28.7354 25.4596 28.7418C26.1664 28.7481 26.4835 28.9743 26.7124 29.6284C27.0058 30.4669 27.292 31.3082 27.5954 32.1885C22.945 32.1894 18.3391 32.1894 13.666 32.1894ZM20.6302 13.6223C20.295 14.3636 19.997 14.9904 19.7309 15.63C19.6264 15.8807 19.4838 15.9615 19.2203 15.9543C18.5626 15.937 17.904 15.9488 17.1536 15.9488C17.6005 16.5448 17.953 17.0917 18.3827 17.5686C18.8142 18.0474 18.9105 18.5198 18.6834 19.1212C18.5199 19.5536 18.4572 20.0233 18.3255 20.5774C18.926 20.2477 19.4411 20.0178 19.8953 19.7017C20.4049 19.3474 20.8356 19.3247 21.3534 19.6917C21.8158 20.0196 22.3472 20.2513 22.9468 20.5792C22.7806 19.8997 22.6561 19.3156 22.4899 18.7432C22.3936 18.4108 22.4317 18.1555 22.6552 17.8784C23.1421 17.2734 23.5927 16.6393 24.1087 15.9488C23.3602 15.9488 22.7124 15.9352 22.0647 15.9552C21.7813 15.9643 21.6341 15.8752 21.5242 15.6072C21.2616 14.9713 20.9609 14.3499 20.6302 13.6223ZM29.9211 12.4985C29.108 12.4985 28.3703 12.4985 27.6481 12.4985C27.6481 14.0156 27.6481 15.4755 27.6481 16.9754C28.5793 16.7437 29.1988 16.1941 29.6131 15.3919C30.0919 14.4671 29.8884 13.4751 29.9211 12.4985ZM13.6097 16.9327C13.6097 15.4292 13.6097 13.9547 13.6097 12.4749C12.8429 12.4749 12.1098 12.4749 11.3821 12.4749C11.0351 14.8496 11.8518 16.483 13.6097 16.9327Z" fill="#142E54"/>
</svg>
