<svg width="27" height="28" viewBox="0 0 27 28" fill="none" xmlns="http://www.w3.org/2000/svg">
<path opacity="0.5" d="M0.97217 1.6537L6.40927 0.398979C6.69585 0.333954 6.99613 0.370917 7.25838 0.503499C7.52063 0.636082 7.72843 0.855981 7.84597 1.12531L10.357 6.98225C10.4641 7.2323 10.4869 7.51045 10.4218 7.77459C10.3567 8.03872 10.2073 8.27445 9.99623 8.44608L6.82751 11.0401C8.74598 15.1072 12.0192 18.3804 16.0862 20.2988L18.6867 17.1301C18.8585 16.9193 19.0942 16.7701 19.3582 16.705C19.6223 16.6399 19.9004 16.6625 20.1505 16.7694L26.0074 19.2788C26.2762 19.3974 26.4958 19.6051 26.6293 19.8668C26.7627 20.1285 26.8019 20.4283 26.7401 20.7155L25.4854 26.1526C25.4215 26.429 25.2659 26.6756 25.0438 26.8522C24.8217 27.0287 24.5464 27.1248 24.2626 27.1248C17.8307 27.1243 11.6621 24.5702 7.11247 20.0236C2.5629 15.477 0.0046587 9.31004 4.00431e-06 2.87808C-0.000713824 2.59403 0.0950985 2.31815 0.271733 2.09569C0.448368 1.87323 0.695343 1.71738 0.97217 1.6537Z" fill="#193A69"/>
</svg>
