<svg width="19" height="15" viewBox="0 0 19 15" fill="none" xmlns="http://www.w3.org/2000/svg">
<path d="M14.2333 8.15816C14.2812 6.55337 13.7542 5.19173 12.6044 4.12187C10.8798 2.46844 8.29283 2.22529 6.28075 3.53831C6.13703 3.63557 5.99331 3.73283 5.80168 3.78146C5.37052 3.87872 4.98727 3.6842 4.84355 3.29516C4.69983 2.90612 4.79564 2.51707 5.2268 2.22529C7.28679 0.815024 9.49049 0.571874 11.79 1.54447C14.4249 2.71159 15.8142 4.85132 15.9579 7.76912C15.9579 7.86638 15.9579 7.96364 15.9579 8.15816C16.2453 7.86638 16.437 7.67186 16.6765 7.47734C17.1077 7.03967 17.5867 7.03967 17.97 7.38008C18.3532 7.76912 18.3053 8.25542 17.8742 8.69309C17.1556 9.42254 16.437 10.152 15.7184 10.8814C15.2872 11.3191 14.8081 11.3191 14.3291 10.8814C13.6105 10.152 12.8919 9.42254 12.1733 8.69309C11.7421 8.25542 11.7421 7.72049 12.0775 7.38008C12.4607 6.99104 12.9398 7.03967 13.3709 7.47734C13.6105 7.72049 13.8979 8.01227 14.1374 8.30405C14.1854 8.20679 14.2333 8.20679 14.2333 8.15816Z" fill="#F5CF46"/>
<path d="M2.11418 7.81735C1.92256 8.0605 1.73093 8.30365 1.4914 8.49817C1.10814 8.88721 0.581168 8.88721 0.245821 8.5468C-0.0895254 8.20639 -0.0895254 7.67146 0.293728 7.28242C1.01233 6.50434 1.77884 5.77489 2.49744 5.04544C2.9286 4.6564 3.35976 4.6564 3.79092 5.04544C4.55742 5.82352 5.27602 6.55297 6.04253 7.33105C6.42579 7.72009 6.42579 8.25502 6.09044 8.59543C5.75509 8.98447 5.22812 8.93584 4.84486 8.5468C4.55742 8.25502 4.31789 8.01187 4.03045 7.72009C4.03045 7.72009 4.03045 7.72009 3.98254 7.72009C3.93464 8.35228 4.03045 8.98447 4.22208 9.61666C5.27602 12.8262 9.06065 14.1879 11.8871 12.3399C12.0309 12.2427 12.1746 12.1454 12.3183 12.0968C12.7016 11.9509 13.1327 12.1454 13.3243 12.5345C13.516 12.9235 13.4202 13.3612 13.0369 13.6043C11.9351 14.3824 10.7374 14.8201 9.396 14.8687C5.75509 15.0632 2.78488 12.4858 2.2579 8.74132C2.21 8.44954 2.21 8.15776 2.21 7.86598C2.21 7.86598 2.16209 7.81735 2.11418 7.81735Z" fill="#F5CF46"/>
</svg>
