<svg width="25" height="26" viewBox="0 0 25 26" fill="none" xmlns="http://www.w3.org/2000/svg">
<path d="M15.65 20.6505C14.7384 20.1297 13.8376 19.6139 12.9369 19.1C11.4181 18.233 9.89532 17.3739 8.38249 16.4959C8.06901 16.3134 7.85969 16.2697 7.52737 16.5307C6.12961 17.6278 4.28842 17.7201 2.79542 16.8293C1.2935 15.9335 0.515755 14.246 0.783601 12.4683C1.02466 10.8722 2.29346 9.50118 3.94914 9.09049C5.30325 8.75419 6.53237 9.05676 7.62558 9.91287C7.80513 10.0537 7.9341 10.149 8.18111 10.0071C10.6116 8.60737 13.0509 7.2235 15.4864 5.83268C15.5409 5.80094 15.5866 5.75332 15.6302 5.7186C15.3128 3.34767 16.3187 1.49656 18.3146 0.758492C19.887 0.177167 21.7044 0.577944 22.8224 1.80012C24.0376 3.12942 24.361 4.68293 23.6676 6.34358C22.9761 7.99827 21.6686 8.8772 19.8542 8.94367C18.7253 8.98533 17.7502 8.59348 16.9188 7.84351C16.7353 7.67785 16.6083 7.61832 16.3712 7.75522C13.9696 9.1381 11.5609 10.5091 9.15428 11.884C9.11361 11.9078 9.07889 11.9425 9.11857 11.9108C9.11857 12.7768 9.11857 13.5744 9.11857 14.4851C11.552 15.8719 14.0955 17.3223 16.6282 18.7667C18.7213 16.7985 21.2163 17.2737 22.5783 18.4849C24.0991 19.8381 24.4463 22.1108 23.3898 23.8528C22.3264 25.6047 20.1756 26.3378 18.2571 25.6037C16.2958 24.8527 15.2334 22.8697 15.65 20.6505Z" fill="white"/>
</svg>
