<svg width="30" height="31" viewBox="0 0 30 31" fill="none" xmlns="http://www.w3.org/2000/svg">
<circle cx="14.9833" cy="15.2245" r="14.9027" fill="white"/>
<g clip-path="url(#clip0_77_1637)">
<path d="M11.3194 19.2761C9.63614 19.0934 8.51228 18.2885 7.8806 16.7479C8.42164 16.7479 8.91169 16.7479 9.40244 16.7479C7.6632 16.1195 6.71284 14.9615 6.57333 13.1716C7.11295 13.3124 7.61079 13.4429 8.10863 13.5727C6.53438 11.8447 6.17605 10.1578 7.14482 8.76493C9.14467 11.0246 11.6537 12.2973 14.6698 12.491C14.7335 11.8577 14.7094 11.2437 14.8666 10.6764C15.5712 8.13167 18.8649 7.21888 20.8775 8.99227C21.0708 9.1626 21.2394 9.21068 21.4752 9.12757C22.1132 8.90229 22.7541 8.68526 23.4255 8.4538C23.1932 9.20106 22.672 9.75396 22.0368 10.2286C22.0495 10.2615 22.063 10.2945 22.0757 10.3275C22.6833 10.1654 23.2902 10.004 23.9247 9.83432C23.5048 10.4511 23.0041 10.9841 22.4015 11.4202C22.1975 11.5672 22.1373 11.7224 22.1402 11.9642C22.1982 16.5879 19.071 20.7466 14.5664 21.9637C11.6933 22.7405 8.92231 22.4314 6.30777 20.9987C6.21854 20.9499 6.13357 20.8929 6.0415 20.8022C7.96346 20.8929 9.71474 20.4526 11.3194 19.2761Z" fill="#052148"/>
</g>
<defs>
<clipPath id="clip0_77_1637">
<rect width="17.8832" height="14.3066" fill="white" transform="translate(6.0415 8.07114)"/>
</clipPath>
</defs>
</svg>
