<svg width="28" height="28" viewBox="0 0 28 28" fill="none" xmlns="http://www.w3.org/2000/svg">
<path opacity="0.5" d="M13.8943 12.7432C15.0783 12.7432 16.2357 12.3922 17.2201 11.7344C18.2046 11.0766 18.9718 10.1417 19.4249 9.04783C19.878 7.95399 19.9965 6.75036 19.7656 5.58914C19.5346 4.42792 18.9644 3.36128 18.1273 2.52408C17.2901 1.68689 16.2234 1.11676 15.0622 0.885778C13.901 0.654798 12.6973 0.773346 11.6035 1.22643C10.5097 1.67952 9.57474 2.44679 8.91696 3.43122C8.25919 4.41565 7.9081 5.57303 7.9081 6.757C7.90578 7.54377 8.05904 8.32324 8.35905 9.05057C8.65907 9.7779 9.09992 10.4387 9.65626 10.9951C10.2126 11.5514 10.8734 11.9923 11.6008 12.2923C12.3281 12.5923 13.1076 12.7456 13.8943 12.7432ZM13.8943 15.9359C9.51241 15.9359 0.724609 18.1388 0.724609 22.5208V27.9084H27.0641V22.5208C27.0641 18.1388 18.2763 15.9359 13.8943 15.9359Z" fill="#193A69"/>
</svg>
