<svg width="38" height="46" viewBox="0 0 38 46" fill="none" xmlns="http://www.w3.org/2000/svg">
<path d="M2.36721 16.9854C-1.43848 23.5646 0.980102 33.5502 5.1897 39.6035C7.29128 42.6302 9.417 45.3474 12.3312 45.3474C12.3859 45.3474 12.4406 45.3458 12.497 45.3442C13.8664 45.2897 14.8544 44.8697 15.8118 44.4641C16.8852 44.0088 17.9971 43.5375 19.7382 43.5375C21.3957 43.5375 22.4529 43.9928 23.4747 44.4337C24.4837 44.8681 25.5216 45.3186 27.0551 45.2897C30.3362 45.2288 32.3509 42.2967 34.1291 39.7109C35.9844 37.0097 36.9145 34.3887 37.2283 33.3867L37.2412 33.3466C37.3007 33.1687 37.2155 32.9747 37.0449 32.8962C37.0449 32.8962 37.0224 32.8866 37.0175 32.885C36.4398 32.6493 31.3709 30.4098 31.3178 24.3036C31.268 19.342 35.1203 16.7161 35.8927 16.24L35.9281 16.2176C36.0118 16.1646 36.0697 16.0797 36.0906 15.9819C36.11 15.8841 36.0906 15.7831 36.0327 15.7014C33.3744 11.8251 29.2983 11.2415 27.657 11.171C27.4188 11.147 27.1742 11.1357 26.9264 11.1357C24.9986 11.1357 23.1529 11.8603 21.6692 12.4439C20.6458 12.8462 19.7608 13.1941 19.1525 13.1941C18.467 13.1941 17.5771 12.843 16.5488 12.4359C15.1714 11.8908 13.6105 11.2736 11.9579 11.2736C11.9176 11.2736 11.879 11.2736 11.842 11.2752C7.9977 11.3281 4.36741 13.5179 2.36721 16.9854Z" fill="#052148"/>
<path d="M27.6601 0.499345C25.3333 0.593928 22.543 2.02068 20.8742 3.96684C19.4566 5.602 18.0711 8.33047 18.4364 11.0798C18.4589 11.2513 18.6005 11.3844 18.7743 11.3988C18.932 11.41 19.0913 11.4164 19.2506 11.4164C21.526 11.4164 23.98 10.1628 25.6567 8.14291C27.4204 6.01079 28.3135 3.27591 28.0431 0.824778C28.0206 0.63401 27.8516 0.49133 27.6601 0.499345Z" fill="#052148"/>
</svg>
