<svg width="84" height="84" viewBox="0 0 84 84" fill="none" xmlns="http://www.w3.org/2000/svg">
<circle cx="41.9477" cy="41.9279" r="41.3317" fill="#F6CD3B"/>
<path d="M40.6779 25.6434C41.0015 27.694 41.3305 29.7428 41.6486 31.7934C41.7907 32.7074 41.9255 33.6232 42.0513 34.5407C42.294 36.3291 41.6091 37.6974 40.1099 38.6563C39.3297 39.1554 38.5028 39.5792 37.7064 40.0514C36.297 40.8864 35.5672 42.12 35.6499 43.7648C35.7362 45.485 36.6188 46.6826 38.2097 47.3362C40.4191 48.243 42.6391 49.1283 44.8539 50.0243C46.0403 50.5037 46.4196 50.9885 46.3801 51.9564C46.3351 53.0068 45.6394 53.4306 44.746 53.7107C37.8268 55.8905 30.9275 58.1297 23.9832 60.2251C22.7698 60.5915 21.3766 60.4334 20.0697 60.385C19.3326 60.358 18.8527 59.5231 19.0432 58.7689C20.1793 54.2889 21.3208 49.8088 22.5163 45.3449C22.6313 44.9158 23.0592 44.4884 23.4529 44.2316C24.9323 43.271 26.4711 42.4037 27.9542 41.452C28.3299 41.2114 28.684 40.8325 28.8818 40.4357C30.2264 37.7369 31.4991 35.0022 32.8653 32.3159C33.126 31.8024 33.6204 31.2511 34.1381 31.0518C36.7824 30.0247 38.9773 28.5182 40.2681 25.9056C40.331 25.7781 40.3993 25.6524 40.4658 25.5267C40.5359 25.5662 40.6078 25.6057 40.6779 25.6434Z" fill="#052148"/>
<path d="M43.5074 25.6183C45.1037 27.5863 46.4987 29.5399 48.1328 31.2655C50.4949 33.7578 51.649 36.8283 52.8138 39.9311C52.9684 40.3441 53.2938 40.7589 53.6515 41.0211C55.2658 42.208 56.9358 43.3194 58.5501 44.5063C58.9366 44.79 59.2908 45.2138 59.4777 45.6519C61.2754 49.8483 63.0371 54.059 64.7987 58.2679C65.3219 59.5177 64.7916 60.4316 63.5116 60.4334C53.3262 60.4442 43.1389 60.4388 32.9103 60.3257C33.1278 60.2431 33.3417 60.1479 33.5628 60.0779C37.6866 58.7653 41.8158 57.4725 45.9342 56.1383C48.4851 55.3123 49.7506 52.6997 48.8213 50.2577C48.3485 49.0187 47.4622 48.1712 46.2308 47.6756C44.0143 46.7832 41.8032 45.88 39.5831 44.9983C38.9378 44.7416 38.3841 44.4363 38.3446 43.6444C38.3068 42.9011 38.7652 42.5168 39.3548 42.2026C39.9355 41.8937 40.4964 41.5508 41.0662 41.2222C44.0791 39.475 45.2565 36.8534 44.6453 33.44C44.2085 31.0015 43.8597 28.5487 43.4751 26.1013C43.4589 25.999 43.4876 25.8894 43.5074 25.6183Z" fill="#052148"/>
<path d="M43.4085 22.5406C43.3618 23.0003 43.324 23.3737 43.2809 23.7939C42.418 23.7939 41.5929 23.7939 40.7354 23.7939C40.7031 23.5964 40.6509 23.4258 40.6491 23.2534C40.6437 20.894 40.6347 18.5346 40.6491 16.1751C40.6563 14.92 41.1381 14.4675 42.4036 14.4639C44.2876 14.4603 46.1715 14.4549 48.0572 14.4657C49.33 14.4747 49.8926 15.2899 49.4756 16.4894C49.4666 16.5181 49.454 16.545 49.4378 16.5702C48.6792 17.8451 48.7295 19.0733 49.3983 20.4164C50.0328 21.6949 49.3695 22.5334 47.9062 22.537C46.4178 22.5442 44.9311 22.5406 43.4085 22.5406Z" fill="#052148"/>
</svg>
