<svg width="19" height="16" viewBox="0 0 19 16" fill="none" xmlns="http://www.w3.org/2000/svg">
<path d="M0.152344 3.71966C0.243618 3.36054 0.383601 3.03293 0.681559 2.791C1.32662 2.26631 2.22576 2.37862 2.74137 3.05557C3.21442 3.6766 3.07575 4.58838 2.43596 5.06957C2.39471 5.10065 2.35346 5.13172 2.30475 5.16856C2.75849 6.22195 3.31403 7.19188 4.27022 7.8533C5.23123 8.51783 6.25675 8.37312 7.06769 7.48353C7.55434 6.94996 7.89354 6.32405 8.13577 5.64976C8.3385 5.086 8.48902 4.5027 8.66191 3.92785C8.6685 3.9061 8.66499 3.88168 8.66674 3.84572C8.12173 3.67571 7.71056 3.34233 7.4793 2.80654C7.31737 2.43188 7.28666 2.04258 7.38583 1.64617C7.58988 0.833824 8.33499 0.266513 9.17138 0.28205C9.96433 0.296699 10.7011 0.907957 10.8709 1.69145C11.0723 2.62276 10.6427 3.34544 9.56676 3.86259C9.63916 4.14181 9.7063 4.42724 9.78705 4.70868C10.0486 5.61424 10.3887 6.48341 10.9683 7.23628C11.3312 7.70726 11.7661 8.08458 12.3598 8.21997C12.9773 8.36069 13.5262 8.17602 14.0269 7.81824C14.7461 7.30419 15.235 6.59661 15.6378 5.82022C15.73 5.64265 15.8032 5.45577 15.8945 5.27776C15.9397 5.18987 15.9195 5.14814 15.8432 5.09177C15.3495 4.72599 15.1349 4.23192 15.2569 3.62377C15.3706 3.05735 15.7229 2.68624 16.2728 2.51623C16.9521 2.3067 17.7402 2.704 17.9872 3.37874C18.2549 4.11029 17.9394 4.90932 17.2623 5.21162C17.1877 5.24492 17.1109 5.2933 17.0337 5.29552C16.8345 5.30129 16.7963 5.42336 16.7651 5.58983C16.3342 7.88438 15.898 10.178 15.4627 12.4717C15.4539 12.5174 15.4408 12.5623 15.4272 12.6186C15.3578 12.6186 15.2947 12.6186 15.231 12.6186C11.15 12.6186 7.069 12.6182 2.98799 12.6213C2.85547 12.6213 2.80018 12.5942 2.77253 12.4482C2.33678 10.1248 1.89226 7.8027 1.45344 5.47974C1.43545 5.38386 1.40122 5.33858 1.30644 5.31683C0.701745 5.17833 0.329626 4.79835 0.182622 4.1902C0.17604 4.16223 0.162875 4.13648 0.152344 4.1094C0.152344 3.97934 0.152344 3.84972 0.152344 3.71966Z" fill="#052148"/>
<path d="M9.13936 13.3485C11.0079 13.3485 12.8763 13.3511 14.7448 13.3467C15.1933 13.3458 15.5593 13.491 15.7892 13.8958C16.1776 14.5799 15.7475 15.4277 14.9721 15.5147C14.9028 15.5227 14.8322 15.5232 14.7624 15.5232C11.0021 15.5236 7.24147 15.5236 3.48123 15.5232C2.90243 15.5232 2.50004 15.2399 2.35215 14.7317C2.16258 14.0813 2.62115 13.4079 3.28859 13.3582C3.38162 13.3511 3.47509 13.3489 3.56856 13.3489C5.42564 13.3485 7.28228 13.3485 9.13936 13.3485Z" fill="#052148"/>
</svg>
