<svg width="83" height="84" viewBox="0 0 83 84" fill="none" xmlns="http://www.w3.org/2000/svg">
<circle cx="41.5524" cy="42.1461" r="41.3317" fill="#F6CD3B"/>
<path d="M28.9724 39.187C27.4019 39.187 25.8333 39.2 24.2628 39.1852C21.5375 39.1593 19.4035 37.0397 19.3869 34.3189C19.3684 31.1765 19.3721 28.034 19.3851 24.8915C19.398 22.1042 21.5172 19.9753 24.2923 19.9605C27.4315 19.9457 30.5706 19.9439 33.7097 19.9605C36.4386 19.9753 38.5689 22.0987 38.5855 24.825C38.6059 27.9989 38.6077 31.1728 38.5855 34.3448C38.5671 37.0212 36.4404 39.1464 33.7725 39.1815C32.1724 39.2037 30.5724 39.187 28.9724 39.187Z" fill="#052148"/>
<path d="M54.0648 39.1869C52.5258 39.1869 50.9867 39.1962 49.4476 39.1851C46.6614 39.1647 44.5274 37.0544 44.5127 34.2818C44.496 31.1394 44.496 27.9969 44.5127 24.8545C44.5274 22.1208 46.6448 19.9789 49.3608 19.9623C52.5313 19.9419 55.7018 19.9419 58.8705 19.9623C61.5477 19.9789 63.6891 22.0986 63.7113 24.7675C63.7371 27.971 63.7371 31.1764 63.7113 34.3799C63.6891 37.0433 61.544 39.1537 58.865 39.1832C57.2668 39.2017 55.6649 39.1869 54.0648 39.1869Z" fill="#052148"/>
<path d="M19.3832 54.7271C19.3832 53.1864 19.3758 51.6457 19.3851 50.105C19.3999 47.2548 21.4988 45.1259 24.3256 45.1148C27.4333 45.1019 30.5429 45.1019 33.6505 45.1148C36.4774 45.1259 38.5818 47.2529 38.5911 50.105C38.6022 53.1864 38.6022 56.2679 38.5911 59.3474C38.5818 62.2346 36.4663 64.3321 33.56 64.3395C30.5133 64.3469 27.4666 64.3469 24.4198 64.3395C21.4766 64.3321 19.3962 62.2254 19.3869 59.2549C19.3777 57.7457 19.3814 56.2364 19.3832 54.7271Z" fill="#052148"/>
<path d="M44.5108 54.7235C44.5108 49.4041 48.8158 45.1075 54.1406 45.113C59.4488 45.1186 63.7297 49.4355 63.7187 54.7772C63.7094 60.0448 59.4063 64.3396 54.1332 64.3433C48.8121 64.347 44.509 60.0466 44.5108 54.7235Z" fill="#052148"/>
</svg>
