<svg width="84" height="84" viewBox="0 0 84 84" fill="none" xmlns="http://www.w3.org/2000/svg">
<path d="M83.2794 42.1461C83.2794 64.9729 64.7746 83.4778 41.9477 83.4778C19.1208 83.4778 0.615967 64.9729 0.615967 42.1461C0.615967 19.3192 19.1208 0.814331 41.9477 0.814331C64.7746 0.814331 83.2794 19.3192 83.2794 42.1461Z" fill="#052148"/>
<path d="M41.0273 59.5006C38.0023 59.5006 34.9792 59.5044 31.9543 59.4987C30.2987 59.4969 29.8909 59.0942 29.889 57.4593C29.8853 53.1839 29.8778 48.9066 29.8909 44.6312C29.9058 40.0505 32.798 37.1665 37.3775 37.1497C39.903 37.1403 42.4285 37.1235 44.9539 37.1534C49.1855 37.204 52.1151 40.0018 52.1918 44.208C52.2722 48.7325 52.2217 53.2588 52.2049 57.7852C52.2011 59.0231 51.6867 59.4912 50.3828 59.4969C47.2624 59.51 44.1458 59.5006 41.0273 59.5006Z" fill="#F6CD3B"/>
<path d="M49.3333 27.1905C49.2491 31.9079 45.5582 35.5073 40.8832 35.4286C36.2794 35.35 32.6838 31.5933 32.768 26.9508C32.8503 22.4413 36.5824 18.7858 41.0759 18.8176C45.6798 18.8494 49.4137 22.6361 49.3333 27.1905Z" fill="#F6CD3B"/>
<path d="M27.2587 59.4126C25.0419 59.4126 22.8943 59.5081 20.758 59.3845C18.8685 59.274 17.2896 57.8807 17.2073 56.0023C17.067 52.77 16.9959 49.5003 17.3364 46.2942C17.6731 43.133 20.5353 40.9269 23.738 40.8202C25.0083 40.7771 26.2803 40.8127 27.4907 40.8127C26.821 46.5432 27.3018 52.2176 27.1652 57.8788C27.1521 58.3695 27.2232 58.8639 27.2587 59.4126Z" fill="#F6CD3B"/>
<path d="M54.9417 59.4706C54.7902 53.1989 55.2766 47.0357 54.6087 40.7003C56.3541 40.8089 58.1874 40.7097 59.9235 41.0786C62.8773 41.706 64.9632 44.5506 64.9875 47.5882C65.0062 50.0527 64.9969 52.5191 64.9913 54.9836C64.9856 57.5867 63.5545 59.2515 60.9655 59.4463C59.1677 59.5811 57.3531 59.4931 55.5441 59.5006C55.3308 59.5006 55.1176 59.4781 54.9417 59.4706Z" fill="#F6CD3B"/>
<path d="M26.4693 38.9905C22.9748 38.9943 20.2547 36.2695 20.2622 32.7712C20.2716 29.3329 22.9972 26.6025 26.4281 26.5969C29.8665 26.5913 32.6296 29.3161 32.6427 32.7282C32.6558 36.2245 29.932 38.9868 26.4693 38.9905Z" fill="#F6CD3B"/>
<path d="M61.8372 32.8031C61.8353 36.2919 59.0985 39.0074 55.6002 38.9905C52.1824 38.9756 49.4623 36.2301 49.4567 32.79C49.4511 29.3235 52.2142 26.5819 55.7012 26.5969C59.1209 26.6118 61.8391 29.361 61.8372 32.8031Z" fill="#F6CD3B"/>
</svg>
