<svg width="83" height="84" viewBox="0 0 83 84" fill="none" xmlns="http://www.w3.org/2000/svg">
<circle cx="41.5524" cy="41.9279" r="41.3317" fill="#052148"/>
<path d="M32.2746 34.53C31.5576 34.3584 31.078 34.2004 30.5865 34.1372C29.5553 34.0063 28.7315 34.5661 28.5466 35.4675C28.3497 36.4321 28.7961 37.2568 29.7597 37.5984C30.4692 37.8512 31.1893 38.1055 31.9274 38.2334C32.7842 38.3839 32.9315 38.8203 32.7782 39.5893C32.5978 40.4952 32.5106 41.4192 32.3573 42.5177C33.835 41.7126 35.1579 40.9346 36.5348 40.2695C36.9978 40.0468 37.6262 39.9715 38.1328 40.0678C41.712 40.751 44.4163 43.1302 47.3807 44.9887C48.3684 45.6072 48.4676 46.9284 47.8182 47.8765C47.1357 48.8727 45.9662 49.1737 44.8763 48.5176C42.9973 47.3859 41.1302 46.2302 39.3203 44.9932C38.5386 44.459 37.9539 44.3958 37.1241 44.8999C35.4359 45.9232 33.7192 46.9299 31.9199 47.735C29.7011 48.7282 27.3801 48.5236 25.1237 47.7441C24.3465 47.4747 24.1827 46.7855 24.4082 46.0451C24.8261 44.6727 25.4063 43.3394 25.6949 41.9429C26.1023 39.9745 26.3037 37.9641 26.5969 35.9716C26.6495 35.618 26.6856 35.2553 26.7923 34.9182C27.1591 33.767 27.7559 32.7663 29.0742 32.6158C30.4783 32.4578 31.4388 33.2193 32.2746 34.53Z" fill="#F6CD3B"/>
<path d="M17.4872 56.844C17.4872 57.309 17.4872 57.774 17.4872 58.3097C16.2876 58.3097 15.1211 58.3097 13.899 58.3097C13.899 57.783 13.899 57.2924 13.899 56.6875C14.9437 56.8515 14.8039 56.1081 14.8039 55.4535C14.8039 54.8034 14.7769 54.1518 14.8205 53.5047C14.9347 51.7922 15.9735 50.8171 17.6977 50.8141C22.2405 50.805 26.7833 50.8126 31.3246 50.8065C31.6854 50.8065 32.0461 50.7614 32.4069 50.7358C32.4009 50.6305 32.3949 50.5251 32.3889 50.4198C29.4049 50.4198 26.421 50.4198 23.4626 50.4198C23.2943 49.2565 23.6415 48.7103 24.6126 48.6967C27.568 48.6561 30.5249 48.6546 33.4802 48.6937C34.5971 48.7088 34.9203 49.2957 34.77 50.808C38.5221 50.808 42.2697 50.8246 46.0158 50.781C46.3705 50.7764 46.7945 50.4649 47.0605 50.179C48.875 48.2287 50.6548 46.2469 52.5098 44.2048C53.0134 44.6502 53.4628 45.0475 54.019 45.5381C52.4902 47.2446 50.9915 48.9195 49.3545 50.7479C50.0625 50.7855 50.6082 50.8141 51.2531 50.8472C50.5992 51.8961 49.9873 52.5958 48.5683 52.5853C38.5462 52.5115 28.524 52.5461 18.5019 52.5461C16.6349 52.5461 16.5883 52.5943 16.5868 54.516C16.5868 54.9133 16.5131 55.3286 16.6078 55.7018C16.71 56.1066 16.9686 56.4723 17.1595 56.856C17.2678 56.853 17.3775 56.8485 17.4872 56.844Z" fill="#F6CD3B"/>
<path d="M58.2386 47.4642C58.5032 47.1692 58.8024 46.9074 59.0098 46.5869C59.4503 45.9097 59.9598 45.839 60.7355 46.0496C62.813 46.614 64.9386 45.7321 66.0856 43.9609C67.234 42.1867 67.1529 39.8978 65.8796 38.1838C64.5011 36.3283 61.896 35.6918 59.7734 36.694C57.5817 37.7293 56.2889 40.1958 57.1157 42.426C57.6584 43.8887 57.1548 44.6893 56.1506 45.4943C54.0416 43.6193 54.0536 39.2568 56.1942 36.6473C58.7918 33.4796 63.1933 32.974 66.4328 35.4721C69.507 37.8422 70.1173 42.3402 67.7993 45.5425C65.615 48.5657 61.2436 49.4656 58.2386 47.4642Z" fill="#F6CD3B"/>
<path d="M44.3848 58.2871C44.3848 57.7378 44.3848 57.2457 44.3848 56.7717C44.472 56.7145 44.5351 56.6393 44.5862 56.6468C46.4998 56.9192 47.6784 55.8989 48.8554 54.525C51.904 50.9705 55.0818 47.5259 58.2266 44.0558C58.649 43.5892 58.8189 43.2552 58.5137 42.5825C57.7862 40.9783 58.3845 39.1815 59.808 38.2034C61.191 37.2538 63.0656 37.3517 64.3103 38.4397C65.573 39.5442 65.9307 41.3696 65.1791 42.8654C64.4004 44.4139 62.7198 45.2325 61.0242 44.7495C60.3071 44.5448 59.9403 44.7525 59.4924 45.2551C56.1627 48.9962 52.8119 52.7192 49.4522 56.4331C47.7535 58.3097 47.1162 58.5309 44.3848 58.2871ZM61.893 43.1468C62.9543 43.1498 63.8082 42.2951 63.8112 41.2251C63.8157 40.1416 62.9964 39.3245 61.9036 39.3215C60.8483 39.32 59.9554 40.1853 59.9524 41.2146C59.9494 42.2304 60.8678 43.1438 61.893 43.1468Z" fill="#F6CD3B"/>
<path d="M36.7618 28.169C36.7679 30.336 34.9053 32.193 32.7662 32.1553C30.6316 32.1192 28.8578 30.3209 28.8533 28.1916C28.8488 26.0216 30.7038 24.1736 32.8519 24.2067C34.9805 24.2398 36.7573 26.0396 36.7618 28.169Z" fill="#F6CD3B"/>
<path d="M30.0333 34.3644C31.1803 34.697 32.0386 34.9453 32.8985 35.1951C36.6851 36.2967 40.4733 37.3982 44.26 38.4998C44.4328 38.5494 44.5982 38.6202 44.7711 38.6698C45.6866 38.9377 46.0639 39.5456 45.8534 40.4711C45.676 41.2551 44.9139 41.6058 43.9668 41.3319C40.798 40.4169 37.6337 39.4854 34.4678 38.5585C32.9541 38.1145 31.4403 37.6721 29.9311 37.2146C29.1584 36.9814 28.742 36.3885 28.9855 35.6541C29.1524 35.1455 29.6966 34.7587 30.0333 34.3644Z" fill="#F6CD3B"/>
<path d="M64.0682 58.2779C62.0734 58.615 60.5055 58.0913 59.2248 56.5278C57.7907 54.7792 56.2258 53.1389 54.688 51.4158C55.0894 50.9734 55.4441 50.5791 55.8665 50.1141C57.5456 51.9847 59.1902 53.783 60.7912 55.6204C61.3534 56.2645 61.9817 56.6015 62.8401 56.6106C64.3493 56.6256 64.3493 56.6482 64.0682 58.2779Z" fill="#F6CD3B"/>
<path d="M50.9465 34.6654C50.6593 35.3862 50.512 35.958 50.2099 36.4306C50.043 36.6909 49.6146 36.7827 49.3049 36.9512C49.1636 36.6292 48.8269 36.2394 48.9096 35.9942C49.5514 34.095 50.2505 32.2125 51.0021 30.354C51.1013 30.1087 51.6019 30.0259 51.916 29.8679C52.0513 30.1975 52.1926 30.5255 52.3174 30.8611C52.337 30.9138 52.2934 31.0056 52.2543 31.0628C50.8728 33.0958 52.1115 34.8174 53.0134 36.4983C53.3005 37.0325 54.1393 37.2703 54.8203 37.7037C54.7557 37.8858 54.658 38.1626 54.4776 38.6713C53.6418 38.1807 52.7428 37.8842 52.2032 37.2733C51.6379 36.6292 51.4155 35.6857 50.9465 34.6654Z" fill="#F6CD3B"/>
<path d="M46.4006 39.6812C48.9561 39.8979 51.5116 40.1145 54.0671 40.3312C54.0536 40.4998 54.0386 40.6668 54.0251 40.8354C51.4725 40.6142 48.92 40.3929 46.366 40.1717C46.3781 40.0077 46.3901 39.8437 46.4006 39.6812Z" fill="#F6CD3B"/>
<path d="M61.8916 42.1837C61.5834 41.7352 61.2452 41.4583 61.2677 41.216C61.2903 40.9768 61.6796 40.7706 61.9081 40.5509C62.1216 40.7811 62.4854 40.9993 62.5064 41.2461C62.5244 41.4839 62.1922 41.7518 61.8916 42.1837Z" fill="#F6CD3B"/>
</svg>
