<svg width="37" height="36" viewBox="0 0 37 36" fill="none" xmlns="http://www.w3.org/2000/svg">
<circle cx="18.5752" cy="18" r="17.7627" fill="#193A69"/>
<path d="M8.85768 14.8311C9.52341 15.4708 10.1404 16.0854 10.7808 16.6758C11.8666 17.6772 13.4634 17.6354 14.401 16.5029C15.4981 15.177 16.5079 13.7795 17.5478 12.4248C17.0115 11.4885 17.0593 10.8051 17.6772 10.3141C18.2248 9.87806 19.004 9.89758 19.5234 10.3606C20.0851 10.8618 20.1244 11.5452 19.6087 12.3774C20.0982 13.0273 20.5989 13.693 21.0996 14.3588C21.5844 15.004 22.0644 15.654 22.5558 16.2937C23.5665 17.6084 25.229 17.7516 26.4357 16.6172C27.0471 16.0426 27.6322 15.4401 28.1769 14.9018C28.025 14.4843 27.8178 14.1272 27.7756 13.7516C27.7006 13.0877 28.1863 12.4973 28.8211 12.3467C29.4653 12.1942 30.1432 12.5131 30.4273 13.1035C30.7189 13.7088 30.5754 14.4201 30.0082 14.7986C29.7016 15.0031 29.6003 15.2495 29.5206 15.5749C29.0968 17.3155 28.6523 19.0515 28.2145 20.7883C28.0419 21.4745 27.861 21.6159 27.138 21.6168C21.4203 21.6242 15.7016 21.6307 9.98379 21.6363C9.28243 21.6372 9.16617 21.5443 8.9927 20.8553C8.52481 18.9985 8.06631 17.1389 7.58248 15.2858C7.54122 15.1268 7.35557 14.9845 7.20648 14.8767C6.67109 14.4908 6.44887 13.8855 6.64858 13.2876C6.85205 12.6786 7.34619 12.3206 7.98286 12.3206C8.63358 12.3206 9.15491 12.7028 9.33494 13.3295C9.49528 13.8892 9.30681 14.3625 8.85768 14.8311Z" fill="#F6CD3B"/>
<path d="M18.5894 25.9999C15.7774 25.9999 12.9645 26.0009 10.1525 25.9999C9.44175 25.9999 9.23172 25.7944 9.22422 25.0924C9.21953 24.6898 9.2139 24.2863 9.22609 23.8837C9.24297 23.323 9.46894 23.0989 10.0278 23.0804C10.34 23.0701 10.6523 23.0776 10.9654 23.0776C16.2772 23.0776 21.5899 23.0776 26.9017 23.0776C27.8609 23.0776 27.9771 23.1947 27.9781 24.1543C27.9781 24.5104 27.9846 24.8674 27.9753 25.2235C27.9612 25.7861 27.7427 25.9981 27.167 25.999C24.3081 26.0009 21.4483 25.9999 18.5894 25.9999Z" fill="#F6CD3B"/>
</svg>
